<svg width="32" height="32" viewBox="0 0 32 32" fill="none" xmlns="http://www.w3.org/2000/svg">
<path d="M25.7379 7.11613C23.9125 6.28129 21.974 5.67285 19.9505 5.33325C19.6959 5.77191 19.4128 6.3662 19.2147 6.83315C17.0625 6.52184 14.9259 6.52184 12.8034 6.83315C12.6053 6.3662 12.3081 5.77191 12.0676 5.33325C10.03 5.67285 8.09148 6.28129 6.27886 7.11613C2.61404 12.5214 1.62354 17.7993 2.1188 23.0065C4.55257 24.7753 6.90149 25.8506 9.20934 26.5582C9.77534 25.7941 10.2847 24.9733 10.7234 24.1102C9.88855 23.7989 9.09615 23.4169 8.33205 22.9641C8.53016 22.8226 8.72827 22.667 8.91221 22.5112C13.5251 24.6196 18.5215 24.6196 23.0776 22.5112C23.2757 22.667 23.4597 22.8226 23.6579 22.9641C22.8937 23.4169 22.1013 23.7989 21.2665 24.1102C21.7052 24.9733 22.2145 25.7941 22.7805 26.5582C25.0869 25.8506 27.45 24.7753 29.8711 23.0065C30.4795 16.9787 28.9075 11.7432 25.7379 7.11613ZM11.3601 19.7945C9.97342 19.7945 8.84142 18.5351 8.84142 16.9929C8.84142 15.4505 9.94512 14.1911 11.3601 14.1911C12.7609 14.1911 13.9071 15.4505 13.8788 16.9929C13.8788 18.5351 12.7609 19.7945 11.3601 19.7945ZM20.6581 19.7945C19.2713 19.7945 18.1379 18.5351 18.1379 16.9929C18.1379 15.4505 19.2431 14.1911 20.6581 14.1911C22.0589 14.1911 23.2051 15.4505 23.1767 16.9929C23.1767 18.5351 22.0731 19.7945 20.6581 19.7945Z" fill="#9498AC"/>
</svg>
