<svg width="121" height="32" viewBox="0 0 121 32" fill="none" xmlns="http://www.w3.org/2000/svg">
<path d="M29.3979 7.38082C26.5615 2.94282 21.5947 0 15.9457 0C9.41017 0 3.79033 3.93534 1.3206 9.57057C0.561801 11.2979 0.100322 13.186 0 15.1692C3.30332 16.8052 6.60481 16.8527 9.90813 16.297C9.90266 16.1983 9.90083 16.0996 9.90083 15.9991C9.90083 12.6541 12.6077 9.94162 15.9457 9.94162C18.3844 9.94162 20.4839 11.3874 21.4396 13.4712C24.9053 12.8223 28.3728 12.7766 31.8403 14.4765C31.5958 11.881 30.7331 9.46638 29.3997 7.38265L29.3979 7.38082Z" fill="white"/>
<path d="M12.6133 31.6509C13.6876 31.8794 14.8021 32 15.9458 32C19.5099 32 22.8005 30.8302 25.4581 28.8525C21.1771 29.0334 16.8961 30.6785 12.6151 31.6527L12.6133 31.6509Z" fill="url(#paint0_linear_250_1462)"/>
<path d="M3.97095 26.5823C5.27878 28.0683 6.85839 29.3094 8.63134 30.2252C8.86847 30.3476 9.10924 30.4646 9.35366 30.5761C15.3438 29.8815 21.3357 26.8144 27.3258 27.2202C27.4535 27.0922 27.5775 26.9606 27.6997 26.8272C28.5424 25.9096 29.2775 24.8933 29.8886 23.7985C21.25 21.6142 12.6096 28.3845 3.97095 26.5823Z" fill="url(#paint1_linear_250_1462)"/>
<path d="M21.9741 15.5568C18.1527 16.2641 14.3314 17.858 10.51 18.6531C7.0243 19.3788 3.54041 19.4409 0.0546875 17.5619C0.310052 20.2086 1.2093 22.6671 2.59191 24.7764C11.9291 27.4871 21.2663 18.4977 30.6035 22.3527C31.3459 20.6363 31.7965 18.7628 31.8913 16.7979C28.5843 14.9956 25.2792 14.9463 21.9741 15.5604V15.5568Z" fill="url(#paint2_linear_250_1462)"/>
<path d="M79.5059 12.9978C80.8538 11.9449 82.904 11.6287 84.5092 11.6854C86.9661 11.7713 89.6438 12.9831 90.2914 15.5531C89.0328 15.5257 87.7705 15.5677 86.5138 15.5348C86.169 15.0102 85.693 14.5478 85.06 14.4034C84.1316 14.1914 83.0718 14.1968 82.2401 14.7141C81.8753 14.9408 81.5652 15.4197 81.7585 15.8529C81.9665 16.4067 82.5921 16.5895 83.1029 16.7503C84.325 17.0501 85.5598 17.2932 86.7874 17.5674C87.8545 17.847 88.947 18.2565 89.7259 19.0735C90.5686 19.9783 90.7565 21.351 90.4136 22.5117C90.0944 23.5718 89.2152 24.3615 88.2503 24.8458C86.3733 25.7232 84.2155 25.853 82.1945 25.5002C80.7918 25.2004 79.3581 24.5424 78.5592 23.2958C78.1543 22.7109 77.9463 22.02 77.7949 21.3327C79.0772 21.3218 80.3595 21.3327 81.6418 21.3272C81.8041 21.8683 82.0777 22.4166 82.6031 22.6835C83.6045 23.2172 84.8375 23.1807 85.9027 22.8699C86.5448 22.7146 87.0957 22.0584 86.9005 21.3766C86.8239 20.8959 86.3952 20.6144 85.9757 20.4554C84.3341 19.8357 82.552 19.7279 80.8921 19.1722C79.7612 18.7939 78.6376 18.0061 78.2528 16.8234C77.8004 15.4306 78.3786 13.8806 79.5095 12.9978H79.5059Z" fill="white"/>
<path d="M94.306 13.5534C95.9494 11.9413 98.4301 11.4021 100.652 11.8005C102.118 12.0162 103.517 12.7254 104.488 13.8587C105.858 15.4325 106.292 17.6405 106.076 19.6749C102.791 19.7717 99.5008 19.6858 96.2139 19.7187C96.2741 20.8355 96.7374 22.0163 97.7005 22.6543C98.4611 23.1405 99.437 23.1788 100.292 22.9613C101.084 22.7749 101.628 22.0968 101.987 21.4058C103.253 21.3784 104.521 21.3675 105.785 21.4131C105.354 22.9485 104.231 24.2627 102.793 24.9409C100.035 26.2441 96.2394 25.9243 94.0907 23.623C93.8792 23.3945 93.6949 23.1496 93.5162 22.8955C92.3652 21.2596 92.1664 19.1576 92.4254 17.2219C92.6571 15.8437 93.2845 14.5149 94.3096 13.5516L94.306 13.5534ZM97.3558 14.8914C96.6736 15.4233 96.3507 16.2751 96.2157 17.1049C97.0949 17.178 97.9759 17.1232 98.8569 17.1397C99.9842 17.125 101.113 17.1726 102.241 17.1122C102.137 15.9095 101.359 14.7488 100.176 14.3942C99.2309 14.1584 98.1273 14.237 97.3558 14.8896V14.8914Z" fill="white"/>
<path d="M111.465 12.2502C113.07 11.6506 114.841 11.5227 116.521 11.8481C117.663 12.0455 118.764 12.5536 119.596 13.3725C120.253 14.0323 120.667 14.9079 120.862 15.8126C120.942 16.4432 121.01 17.0775 120.999 17.7136C120.988 20.3183 121.01 22.9211 120.988 25.524C119.729 25.5294 118.471 25.513 117.212 25.5331C117.199 24.6704 117.259 23.8058 117.177 22.9449C116.665 23.6669 116.187 24.4455 115.428 24.939C114.434 25.6227 113.161 25.7524 111.988 25.6446C110.565 25.5057 109.192 24.7307 108.444 23.4932C107.793 22.3764 107.683 20.9452 108.205 19.7571C108.557 18.9419 109.351 18.4392 110.148 18.1249C112.358 17.2 114.803 17.3499 117.13 16.9971C117.168 16.2733 117.042 15.4855 116.501 14.9609C115.857 14.2389 114.786 14.1859 113.9 14.3577C113.062 14.5386 112.377 15.2076 112.176 16.0429C110.908 16.0137 109.641 16.0411 108.373 16.0283C108.55 14.2937 109.876 12.8589 111.463 12.2538L111.465 12.2502ZM113.175 19.6804C112.707 19.8321 112.231 20.0825 111.963 20.5138C111.559 21.2669 111.793 22.2869 112.45 22.8206C113.606 23.7345 115.487 23.528 116.382 22.3399C117.092 21.4479 117.199 20.2488 117.104 19.1503C115.797 19.3422 114.46 19.344 113.175 19.6804Z" fill="white"/>
<path d="M49.3838 25.8365C43.9646 25.8365 39.5522 21.7696 39.5522 16.0119C39.5522 10.2542 43.9646 6.21466 49.3838 6.21466C54.803 6.21466 59.1606 10.2542 59.1606 16.0119C59.1606 21.7696 54.803 25.8365 49.3838 25.8365ZM49.3838 21.5795C52.5795 21.5795 54.6625 19.3696 54.6625 16.0119C54.6625 12.6541 52.5795 10.4443 49.3838 10.4443C46.1881 10.4443 44.0758 12.5993 44.0758 16.0119C44.0758 19.4245 46.1297 21.5795 49.3838 21.5795Z" fill="white"/>
<path d="M76.0456 11.8371H72.0637V25.5221H76.0456V11.8371Z" fill="white"/>
<path d="M76.0456 6.37733H72.0637V9.89775H76.0456V6.37733Z" fill="#2388FF"/>
<path d="M70.3163 14.6026V11.8389H67.3121V8.56892L63.4452 10.4461V11.8408H60.908V14.6045H63.4452V15.8693C63.4415 15.9077 63.4379 15.9461 63.4379 15.9808C63.4379 16.5109 63.4379 17.0391 63.4361 17.5692C63.4361 18.6275 63.4361 19.6877 63.4415 20.746C63.4434 21.1335 63.4798 21.5338 63.5145 21.9213C63.571 22.5373 63.7188 23.1167 64.0489 23.6449C64.3335 24.1001 64.7238 24.4876 65.1762 24.7764C65.4243 24.9354 65.6924 25.0652 65.9715 25.1584C67.3559 25.6958 68.8626 25.4965 70.3108 25.5203C70.32 24.6064 70.3145 23.6925 70.3145 22.7786C69.521 22.6817 68.6692 22.9175 67.925 22.5556C67.4818 22.3582 67.3121 21.8372 67.3121 21.3839C67.3121 20.0642 67.3121 18.7427 67.3121 17.423C67.3121 16.7704 67.345 16.1069 67.3121 15.4544C67.3121 15.4507 67.3121 15.4489 67.3121 15.4471V14.6081H70.3163V14.6026Z" fill="white"/>
<defs>
<linearGradient id="paint0_linear_250_1462" x1="12.6137" y1="30.4262" x2="25.4581" y2="30.4262" gradientUnits="userSpaceOnUse">
<stop stop-color="#2388FF"/>
<stop offset="1" stop-color="#4A3AFF"/>
</linearGradient>
<linearGradient id="paint1_linear_250_1462" x1="3.97173" y1="26.9677" x2="29.8886" y2="26.9677" gradientUnits="userSpaceOnUse">
<stop stop-color="#2388FF"/>
<stop offset="1" stop-color="#4A3AFF"/>
</linearGradient>
<linearGradient id="paint2_linear_250_1462" x1="0.0556513" y1="20.2502" x2="31.8913" y2="20.2502" gradientUnits="userSpaceOnUse">
<stop stop-color="#2388FF"/>
<stop offset="1" stop-color="#4A3AFF"/>
</linearGradient>
</defs>
</svg>
