<svg width="213" height="56" viewBox="0 0 213 56" fill="none" xmlns="http://www.w3.org/2000/svg">
<path d="M27.9584 55.9776C22.456 55.9776 17.1263 54.3721 12.5528 51.3339C11.1671 50.4245 9.86765 49.3881 8.6748 48.2449L11.695 44.1602L21.187 31.347L38.7295 31.1031L48.7444 17.5685L51.8306 13.4025C52.7595 14.9165 53.5462 16.5168 54.1604 18.1731C55.333 21.3231 55.9268 24.6203 55.9268 27.9786C55.9268 43.4133 43.3791 55.9725 27.9584 55.9725V55.9776ZM23.4509 35.8077L14.7913 47.5083L15.2431 47.8029C19.0145 50.2467 23.4103 51.5371 27.9533 51.5371C34.2424 51.5371 40.1508 49.0883 44.5872 44.6377C49.0337 40.1872 51.4803 34.2734 51.4803 27.9888C51.4803 26.4341 51.3331 24.8947 51.0438 23.4162L50.8204 22.2884L40.9883 35.5689L23.4458 35.8128L23.4509 35.8077Z" fill="url(#paint0_linear_3544_2498)"/>
<path d="M4.09629 42.5497C3.16232 41.0306 2.37555 39.4353 1.76643 37.7892C0.593887 34.6443 0 31.342 0 27.9837C0 12.5541 12.5427 0 27.9584 0C33.481 0 38.8107 1.60038 43.374 4.63347C44.7598 5.55305 46.0592 6.58949 47.247 7.72245L34.7398 24.6204L17.1973 24.8643L4.09629 42.5497ZM27.9584 4.43533C21.6794 4.43533 15.771 6.88416 11.3245 11.3347C6.88299 15.7802 4.44146 21.6889 4.44146 27.9837C4.44146 29.5435 4.59374 31.0778 4.88814 32.541L5.11656 33.6587L14.9284 20.4086L32.4709 20.1647L41.1305 8.46421L40.6787 8.16954C36.9174 5.72579 32.5166 4.43533 27.9584 4.43533Z" fill="url(#paint1_linear_3544_2498)"/>
<path d="M89.553 15.138C87.5137 14.0024 85.1903 13.4346 82.5876 13.4346C79.985 13.4346 77.6616 14.0024 75.6223 15.138C73.583 16.2736 71.9953 17.9066 70.8732 19.9948C69.7465 22.0877 69.1831 24.5326 69.1831 27.3388C69.1831 30.1449 69.7465 32.5898 70.8732 34.678C72 36.7709 73.583 38.4039 75.6223 39.5348C77.6616 40.6704 79.985 41.2382 82.5876 41.2382C85.1903 41.2382 87.5137 40.6704 89.553 39.5348C91.5923 38.3992 93.18 36.7662 94.3021 34.678C95.4288 32.5851 95.9922 30.1402 95.9922 27.3388C95.9922 24.5373 95.4288 22.0877 94.3021 19.9948C93.1753 17.9019 91.5923 16.2689 89.553 15.138ZM89.2364 32.3739C88.6032 33.7911 87.7232 34.8939 86.5638 35.6728C85.3999 36.4518 84.0636 36.8413 82.5504 36.8413C81.0372 36.8413 79.7009 36.4518 78.5369 35.6728C77.373 34.8939 76.4976 33.7911 75.8644 32.3739C75.2312 30.9568 74.9146 29.2862 74.9146 27.4091C74.9146 25.5321 75.2312 23.8615 75.8644 22.4444C76.4976 21.0272 77.3776 19.9244 78.5369 19.1455C79.6963 18.3665 81.0372 17.977 82.5504 17.977C84.0636 17.977 85.3999 18.3665 86.5638 19.1455C87.7232 19.9244 88.6032 21.0272 89.2364 22.4444C89.8696 23.8615 90.1862 25.5321 90.1862 27.4091C90.1862 29.2862 89.8696 30.9568 89.2364 32.3739ZM121.959 13.8616H125.055V17.7283H123.118L123.081 17.6579C122.27 17.6579 121.675 17.8362 121.288 18.1553C120.902 18.4744 120.725 19.0422 120.725 19.8587V21.4542H125.017V25.4242H120.725V40.7127H115.342V25.4242H106.44V40.7127H101.058V25.4242H97.6078V21.4542H101.058V19.5396C101.058 18.2961 101.342 17.2356 101.901 16.3815C102.464 15.5322 103.237 14.894 104.224 14.4669C105.211 14.0399 106.333 13.8287 107.637 13.8287H110.733V17.6955H108.833C108.023 17.6955 107.427 17.8738 107.041 18.1929C106.654 18.512 106.477 19.0798 106.477 19.8963V21.4918H115.38V19.5772C115.38 18.3336 115.659 17.2731 116.222 16.4191C116.786 15.5697 117.559 14.9315 118.546 14.5045C119.533 14.0775 120.66 13.8663 121.959 13.8663V13.8616ZM140.745 22.4444C139.302 21.595 137.612 21.168 135.68 21.168C133.747 21.168 132.09 21.595 130.614 22.4444C129.133 23.2937 127.974 24.4669 127.164 25.992C126.354 27.5171 125.93 29.2533 125.93 31.2055C125.93 33.1576 126.317 34.8938 127.127 36.4189C127.937 37.944 129.064 39.15 130.539 39.9994C132.015 40.8488 133.706 41.2758 135.642 41.2758C137.966 41.2758 139.935 40.7455 141.518 39.7132C143.101 38.6855 144.228 37.1604 144.861 35.1379H139.442C139.088 35.9544 138.632 36.555 138.036 36.9492C137.44 37.3387 136.662 37.5499 135.68 37.5499C134.516 37.5499 133.566 37.1604 132.83 36.3439C132.09 35.5274 131.634 34.3589 131.457 32.7963H145.145C145.215 32.266 145.252 31.7686 145.252 31.304C145.252 29.2815 144.866 27.5077 144.093 25.9826C143.32 24.4575 142.193 23.289 140.75 22.435L140.745 22.4444ZM131.457 29.2205C131.666 27.7658 132.127 26.6677 132.863 25.9591L132.895 25.9216C133.636 25.213 134.548 24.8564 135.642 24.8564C136.737 24.8564 137.719 25.2459 138.459 26.0248C139.2 26.8038 139.656 27.869 139.796 29.2158H131.457V29.2205ZM155.947 22.6227C157.004 21.6279 158.41 21.1351 160.133 21.1351V26.4565H158.759C157.037 26.4565 155.77 26.7756 154.96 27.4514C154.15 28.1271 153.763 29.2627 153.763 30.8582V40.8253H148.381V21.5669H153.731V26.602L153.768 26.5645C154.155 24.9315 154.895 23.6222 155.952 22.6274L155.947 22.6227ZM162.563 13.8616H168.122V18.9672H162.563V13.8616ZM162.633 21.5575H168.015V40.8159H162.633V21.5575ZM189.237 24.7156C189.694 25.8512 189.94 27.1276 189.94 28.5823V40.7831H184.558V29.7508C184.558 28.1177 184.274 26.9117 183.678 26.0952C183.082 25.2787 182.202 24.8892 181.038 24.8892C179.874 24.8892 179.031 25.2787 178.435 26.0952C177.835 26.9117 177.518 28.1506 177.518 29.8211V40.7784H172.136V21.5199H177.486V25.457C177.942 24.1431 178.682 23.0826 179.702 22.2989C180.722 21.5199 182.025 21.1304 183.608 21.1304C185.052 21.1304 186.248 21.4495 187.198 22.0877L187.128 22.0502C188.078 22.6884 188.781 23.5753 189.237 24.7109V24.7156ZM207.326 21.5575V25.8137C206.869 24.4293 206.092 23.2937 205.002 22.4115C203.913 21.5246 202.572 21.0976 200.989 21.0976C199.406 21.0976 198.07 21.5246 196.873 22.3411C195.676 23.1576 194.764 24.2933 194.093 25.7808C193.423 27.2731 193.106 28.9718 193.106 30.8864C193.106 32.8009 193.423 34.5044 194.093 35.9919C194.764 37.4795 195.676 38.6151 196.873 39.4316C198.07 40.2481 199.443 40.6751 200.989 40.6751C202.432 40.6751 203.699 40.2857 204.825 39.5067C205.952 38.7277 206.795 37.7329 207.326 36.494V40.6094C207.326 41.9234 206.939 42.9135 206.199 43.5892C205.459 44.265 204.476 44.5841 203.28 44.5841C202.293 44.5841 201.45 44.3729 200.747 43.9083C200.044 43.4485 199.588 42.7727 199.411 41.8858H193.991C194.168 43.303 194.694 44.509 195.574 45.4663C196.454 46.4236 197.581 47.1322 198.917 47.592C200.253 48.0519 201.697 48.3006 203.28 48.3006C204.863 48.3006 206.413 48.0519 207.819 47.5545C209.225 47.0571 210.389 46.2406 211.302 45.0721C212.219 43.899 212.675 42.4114 212.675 40.6047V21.6982L207.326 21.5575ZM206.339 35.4945H206.371C205.598 36.5597 204.504 37.09 203.066 37.09C201.627 37.09 200.495 36.5597 199.723 35.4945C198.95 34.4293 198.563 32.9417 198.563 31.0271C198.563 29.1126 198.95 27.625 199.723 26.5598C200.495 25.4946 201.59 24.9643 203.033 24.9643C204.476 24.9643 205.566 25.4946 206.339 26.5598C207.112 27.625 207.498 29.1126 207.498 31.0271C207.498 32.9417 207.112 34.434 206.339 35.4945Z" fill="white"/>
<defs>
<linearGradient id="paint0_linear_3544_2498" x1="8.6748" y1="34.69" x2="55.9268" y2="34.69" gradientUnits="userSpaceOnUse">
<stop stop-color="#FD4F45"/>
<stop offset="0.99" stop-color="#ED8942"/>
</linearGradient>
<linearGradient id="paint1_linear_3544_2498" x1="0" y1="21.2774" x2="47.247" y2="21.2774" gradientUnits="userSpaceOnUse">
<stop stop-color="#FD4F45"/>
<stop offset="0.99" stop-color="#ED8942"/>
</linearGradient>
</defs>
</svg>
