<svg width="32" height="32" viewBox="0 0 32 32" fill="none" xmlns="http://www.w3.org/2000/svg">
<path d="M2.86329 15.7466C9.85979 12.6984 14.5253 10.6888 16.8595 9.71786C23.5246 6.94563 24.9095 6.46407 25.8122 6.44817C26.0107 6.44467 26.4547 6.49387 26.7422 6.72721C26.985 6.92422 27.0518 7.19037 27.0838 7.37715C27.1158 7.56395 27.1555 7.98947 27.1239 8.32195C26.7627 12.1169 25.1999 21.3264 24.4049 25.5768C24.0685 27.3753 23.4061 27.9782 22.7647 28.0373C21.371 28.1656 20.3126 27.1162 18.9627 26.2314C16.8505 24.8468 15.6571 23.9848 13.6067 22.6336C11.2372 21.0721 12.7733 20.2138 14.1237 18.8113C14.4771 18.4442 20.6179 12.8587 20.7367 12.352C20.7515 12.2886 20.7654 12.0524 20.625 11.9277C20.4847 11.803 20.2777 11.8456 20.1282 11.8796C19.9163 11.9276 16.5418 14.158 10.0048 18.5708C9.04696 19.2284 8.1794 19.5489 7.40209 19.5321C6.54516 19.5136 4.89678 19.0476 3.67138 18.6493C2.16838 18.1606 0.973828 17.9024 1.07785 17.0726C1.13203 16.6405 1.72717 16.1985 2.86329 15.7466Z" fill="#9498AC"/>
</svg>
